<?xml version="1.0" encoding="utf-8"?>
<!-- Generator: Adobe Illustrator 19.2.1, SVG Export Plug-In . SVG Version: 6.00 Build 0)  -->
<svg version="1.1" id="Layer_1" xmlns="http://www.w3.org/2000/svg" xmlns:xlink="http://www.w3.org/1999/xlink" x="0px" y="0px"
	 viewBox="0 0 24 24" style="enable-background:new 0 0 24 24;" xml:space="preserve">
<style type="text/css">
	.st0{fill:none;stroke:#5A6677;stroke-width:0.75;stroke-linejoin:round;stroke-miterlimit:10;}
	.st1{fill:none;stroke:#5A6677;stroke-width:0.75;stroke-linecap:round;stroke-linejoin:round;stroke-miterlimit:10;}
</style>
<g>
	<path class="st0" d="M11.5,23.5c-6-8-6-16.5,0-23 M2,17.5h10.5 M1.8,6.5h10.7 M0.6,11.5h11.9"/>
	<path class="st0" d="M12.5,0.5l-0.5,0C5.6,0.5,0.5,5.4,0.5,11.7c0,6.4,5.1,11.8,11.5,11.8l0.5,0C12.5,23.5,12.5,0.5,12.5,0.5z"/>
	<path class="st1" d="M14.9,15.6c0,2,1.6,3.6,3.6,3.6c2,0,3.6-1.6,3.6-3.6S20.5,12,18.5,12c-2,0-3.6-1.6-3.6-3.6
		c0-2,1.6-3.6,3.6-3.6c2,0,3.6,1.6,3.6,3.6 M18.5,2.5v18.9"/>
</g>
</svg>
