<?xml version="1.0" encoding="utf-8"?>
<!-- Generator: Adobe Illustrator 19.2.1, SVG Export Plug-In . SVG Version: 6.00 Build 0)  -->
<svg version="1.1" id="Layer_1" xmlns="http://www.w3.org/2000/svg" xmlns:xlink="http://www.w3.org/1999/xlink" x="0px" y="0px"
	 viewBox="0 0 24 24" style="enable-background:new 0 0 24 24;" xml:space="preserve">
<style type="text/css">
	.st0{fill:none;stroke:#5A6677;stroke-width:0.75;stroke-linejoin:round;stroke-miterlimit:10;}
	.st1{fill:none;stroke:#5A6677;stroke-width:0.75;stroke-linecap:round;stroke-linejoin:round;stroke-miterlimit:10;}
</style>
<g>
	<path class="st0" d="M4,6.6V8L1.5,8.7c-0.5,0.2-1,0.7-1,1.3v0.5H6 M7,6.6V8l2.5,0.7c0.5,0.2,1,0.7,1,1.3v0.5H5"/>
	<ellipse class="st0" cx="5.5" cy="3.8" rx="3" ry="3.3"/>
	<path class="st0" d="M8.5,3.2C8,3.7,6.5,3.7,6,2.7c-1,1-2.6,1-3.4,0.4 M17,6.6V8l-2.5,0.7c-0.5,0.2-1,0.7-1,1.3v0.5H19 M20,6.6V8
		l2.5,0.7c0.5,0.2,1,0.7,1,1.3v0.5H18"/>
	<ellipse class="st0" cx="18.5" cy="3.8" rx="3" ry="3.3"/>
	<path class="st0" d="M21.5,3.2C21,3.7,19.5,3.7,19,2.7c-1,1-2.6,1-3.4,0.4 M10.5,19.6V21L8,21.7c-0.5,0.2-1,0.7-1,1.3v0.5h5.5
		 M13.5,19.6V21l2.5,0.7c0.5,0.2,1,0.7,1,1.3v0.5h-5.5"/>
	<ellipse class="st0" cx="12" cy="16.8" rx="3" ry="3.3"/>
	<path class="st0" d="M15,16.2c-0.5,0.5-1.9,0.5-2.5-0.5c-1,1-2.6,1-3.4,0.4"/>
	<path class="st1" d="M4,12.5L6.5,15 M20,12.5L17.5,15"/>
</g>
</svg>
