<?xml version="1.0" encoding="utf-8"?>
<!-- Generator: Adobe Illustrator 19.2.1, SVG Export Plug-In . SVG Version: 6.00 Build 0)  -->
<svg version="1.1" id="Layer_1" xmlns="http://www.w3.org/2000/svg" xmlns:xlink="http://www.w3.org/1999/xlink" x="0px" y="0px"
	 viewBox="0 0 223.9 99" style="enable-background:new 0 0 223.9 99;" xml:space="preserve">
<style type="text/css">
	.st0{display:none;}
	.st1{display:inline;fill:#FFFFD3;}
	.st2{display:inline;}
	.st3{fill:none;stroke:#E6E6E6;stroke-miterlimit:10;}
	.st4{display:inline;fill:#E6E6E6;}
	.st5{fill:none;stroke:#666666;stroke-miterlimit:10;}
	.st6{fill:#4D9EFF;}
	.st7{fill:#666666;}
	.st8{fill:none;stroke:#FFFFFF;stroke-miterlimit:10;}
	.st9{fill:#E6E6E6;}
	.st10{font-family:'ArialMT';}
	.st11{font-size:13px;}
	.st12{fill:none;stroke:#4D9EFF;stroke-miterlimit:10;}
	.st13{display:inline;fill:none;stroke:#666666;stroke-miterlimit:10;}
	.st14{display:inline;fill:#666666;}
	.st15{display:inline;fill:none;stroke:#4D9EFF;stroke-miterlimit:10;}
	.st16{display:inline;fill:none;stroke:#666666;stroke-width:2;stroke-miterlimit:10;}
	.st17{fill:#1378FB;}
	.st18{fill:#FFFFFF;}
</style>
<g id="Layer_3" class="st0">
	<rect x="-434.5" y="-73.4" class="st1" width="727.5" height="703.5"/>
</g>
<g id="raw" class="st0">
	<g class="st2">
		<g>
			<line class="st3" x1="31.8" y1="31.5" x2="69.3" y2="31.5"/>
			<line class="st3" x1="48.3" y1="52.5" x2="69.3" y2="52.5"/>
			<line class="st3" x1="22" y1="52.5" x2="43.9" y2="52.5"/>
			<line class="st3" x1="31.8" y1="61.5" x2="69.3" y2="61.5"/>
			<line class="st3" x1="48.3" y1="71.5" x2="69.3" y2="71.5"/>
			<line class="st3" x1="0" y1="71.5" x2="42.9" y2="71.5"/>
			<line class="st3" x1="69.3" y1="42.5" x2="58.7" y2="42.5"/>
			<line class="st3" x1="53.9" y1="42.5" x2="31.8" y2="42.5"/>
		</g>
		<g>
			<line class="st3" x1="183" y1="64.5" x2="153.9" y2="64.5"/>
			<line class="st3" x1="164.3" y1="44.5" x2="153.9" y2="44.5"/>
			<line class="st3" x1="201.8" y1="44.5" x2="168.8" y2="44.5"/>
			<line class="st3" x1="192" y1="34.5" x2="153.9" y2="34.5"/>
			<line class="st3" x1="178.9" y1="24.5" x2="153.9" y2="24.5"/>
			<line class="st3" x1="223.8" y1="24.5" x2="183.2" y2="24.5"/>
			<line class="st3" x1="153.9" y1="53.5" x2="175.2" y2="53.5"/>
			<line class="st3" x1="179.2" y1="53.5" x2="193.1" y2="53.5"/>
		</g>
	</g>
	<rect x="69.9" y="70.5" class="st4" width="54" height="10.7"/>
	<g class="st2">
		<path class="st5" d="M122.4,62.5h-20c-0.8,0-1.5-0.7-1.5-1.5V30c0-0.8,0.7-1.5,1.5-1.5h20c0.8,0,1.5,0.7,1.5,1.5v31
			C123.9,61.8,123.2,62.5,122.4,62.5z"/>
		<rect x="104.9" y="31.5" class="st6" width="15" height="22"/>
		<circle class="st7" cx="112.3" cy="57.9" r="1.4"/>
		<polyline class="st8" points="108.2,43.3 111,46.1 117,40 		"/>
	</g>
	<g class="st2">
		<polygon class="st5" points="152.9,43.4 149.9,40.7 146.3,42.9 142.7,40.7 139.1,42.9 135.5,40.7 132.9,42.9 132.9,0.5 152.9,0.5 
					"/>
	</g>
	<g class="st2">
		<polygon class="st5" points="152.9,92.5 150.1,90.3 146.5,92.5 142.9,90.3 139.3,92.5 135.7,90.3 132.9,92.5 132.9,52.5 
			152.9,52.5 		"/>
	</g>
	<g class="st2">
		<rect x="69.6" y="37.9" class="st9" width="23.3" height="7.1"/>
		<rect x="68.9" y="1.5" class="st5" width="24" height="60"/>
		<text transform="matrix(1 0 0 1 77.4154 56.5002)" class="st7 st10 st11">¥</text>
		<circle class="st12" cx="76.4" cy="37.9" r="2.9"/>
	</g>
	<rect x="69.9" y="70.5" class="st13" width="54" height="28"/>
	<text transform="matrix(1 0 0 1 109.4154 94.5)" class="st14 st10 st11">€</text>
	<line class="st15" x1="75.9" y1="76" x2="91.9" y2="76"/>
	<line class="st13" x1="110.9" y1="76" x2="118.9" y2="76"/>
	<line class="st13" x1="135.9" y1="5" x2="144.9" y2="5"/>
	<line class="st15" x1="146.9" y1="5" x2="149.9" y2="5"/>
	<line class="st13" x1="135.9" y1="9" x2="145.9" y2="9"/>
	<line class="st15" x1="147.9" y1="9" x2="149.9" y2="9"/>
	<line class="st13" x1="135.9" y1="13" x2="142.9" y2="13"/>
	<line class="st15" x1="144.9" y1="13" x2="149.9" y2="13"/>
	<line class="st13" x1="135.9" y1="17" x2="145.9" y2="17"/>
	<line class="st15" x1="147.9" y1="17" x2="149.9" y2="17"/>
	<line class="st13" x1="152.9" y1="22" x2="132.9" y2="22"/>
	<text transform="matrix(1 0 0 1 139.9 35.5)" class="st14 st10 st11">$</text>
	<text transform="matrix(1 0 0 1 139.4156 84.4999)" class="st14 st10 st11">£</text>
	<line class="st13" x1="136.9" y1="59" x2="148.9" y2="59"/>
	<line class="st13" x1="136.9" y1="63" x2="148.9" y2="63"/>
	<line class="st13" x1="136.9" y1="67" x2="148.9" y2="67"/>
	<g class="st2">
		<line class="st5" x1="75.9" y1="86" x2="81.9" y2="86"/>
		<line class="st5" x1="75.9" y1="90" x2="81.9" y2="90"/>
		<line class="st5" x1="75.9" y1="94" x2="81.9" y2="94"/>
		<line class="st5" x1="85.9" y1="86" x2="101.9" y2="86"/>
		<line class="st5" x1="85.9" y1="90" x2="101.9" y2="90"/>
		<line class="st5" x1="85.9" y1="94" x2="96.9" y2="94"/>
	</g>
	<line class="st15" x1="136.9" y1="72" x2="141.9" y2="72"/>
	<line class="st13" x1="72.9" y1="21" x2="87.9" y2="21"/>
	<line class="st13" x1="72.9" y1="25" x2="82.9" y2="25"/>
	<line class="st13" x1="72.9" y1="29" x2="85.9" y2="29"/>
	<line class="st13" x1="88.4" y1="6.5" x2="88.4" y2="10.5"/>
	<line class="st13" x1="85.4" y1="6.5" x2="85.4" y2="10.5"/>
	<line class="st13" x1="82.4" y1="6.5" x2="82.4" y2="10.5"/>
	<line class="st13" x1="79.4" y1="6.5" x2="79.4" y2="10.5"/>
	<line class="st13" x1="76.4" y1="6.5" x2="76.4" y2="10.5"/>
	<line class="st13" x1="73.4" y1="6.5" x2="73.4" y2="10.5"/>
	<line class="st13" x1="68.9" y1="15" x2="92.9" y2="15"/>
	<path class="st13" d="M123.2,19.5h-21.6c-0.4,0-0.7-0.3-0.7-0.7V5.2c0-0.4,0.3-0.7,0.7-0.7h21.6c0.4,0,0.7,0.3,0.7,0.7v13.6
		C123.9,19.2,123.6,19.5,123.2,19.5z"/>
	<line class="st16" x1="100.9" y1="8.5" x2="123.9" y2="8.5"/>
	<line class="st13" x1="103.9" y1="12" x2="111.9" y2="12"/>
	<line class="st13" x1="103.9" y1="15" x2="109.9" y2="15"/>
	<rect x="115.4" y="12" class="st15" width="5" height="3"/>
</g>
<g id="outline">
	<g>
		<g>
			<g>
				<rect x="31.8" y="31" class="st9" width="37.5" height="1"/>
			</g>
			<g>
				<rect x="48.3" y="52" class="st9" width="21" height="1"/>
			</g>
			<g>
				<rect x="22" y="52" class="st9" width="21.9" height="1"/>
			</g>
			<g>
				<rect x="31.8" y="61" class="st9" width="37.5" height="1"/>
			</g>
			<g>
				<rect x="48.3" y="71" class="st9" width="21" height="1"/>
			</g>
			<g>
				<rect y="71" class="st9" width="42.9" height="1"/>
			</g>
			<g>
				<rect x="58.7" y="42" class="st9" width="10.5" height="1"/>
			</g>
			<g>
				<rect x="31.8" y="42" class="st9" width="22.1" height="1"/>
			</g>
		</g>
		<g>
			<g>
				<rect x="153.9" y="64" class="st9" width="29.1" height="1"/>
			</g>
			<g>
				<rect x="153.9" y="44" class="st9" width="10.4" height="1"/>
			</g>
			<g>
				<rect x="168.8" y="44" class="st9" width="33" height="1"/>
			</g>
			<g>
				<rect x="153.9" y="34" class="st9" width="38.1" height="1"/>
			</g>
			<g>
				<rect x="153.9" y="24" class="st9" width="25" height="1"/>
			</g>
			<g>
				<rect x="183.2" y="24" class="st9" width="40.7" height="1"/>
			</g>
			<g>
				<rect x="153.9" y="53" class="st9" width="21.3" height="1"/>
			</g>
			<g>
				<rect x="179.2" y="53" class="st9" width="13.9" height="1"/>
			</g>
		</g>
	</g>
	<g>
		<rect x="69.9" y="70.5" class="st9" width="54" height="10.7"/>
	</g>
	<g>
		<g>
			<path class="st7" d="M122.4,63h-20c-1.1,0-2-0.9-2-2V30c0-1.1,0.9-2,2-2h20c1.1,0,2,0.9,2,2v31C124.4,62.1,123.5,63,122.4,63z
				 M102.4,29c-0.5,0-1,0.4-1,1v31c0,0.5,0.4,1,1,1h20c0.5,0,1-0.4,1-1V30c0-0.5-0.4-1-1-1H102.4z"/>
		</g>
		<g>
			<rect x="104.9" y="31.5" class="st17" width="15" height="22"/>
		</g>
		<g>
			<circle class="st7" cx="112.3" cy="57.9" r="1.4"/>
		</g>
		<g>
			<polygon class="st18" points="111,46.8 107.9,43.6 108.6,42.9 111,45.3 116.7,39.6 117.4,40.3 			"/>
		</g>
	</g>
	<g>
		<g>
			<path class="st7" d="M153.4,44.6l-3.5-3.3l-3.5,2.2l-3.6-2.2l-3.6,2.2l-3.6-2.2l-3.2,2.7V0h21L153.4,44.6L153.4,44.6z M135.5,40
				l3.7,2.3l3.6-2.2l3.6,2.2l3.7-2.3l2.4,2.3V1h-19v40.8L135.5,40z"/>
		</g>
	</g>
	<g>
		<g>
			<path class="st7" d="M153.4,93.5l-3.3-2.7l-3.6,2.2l-3.6-2.2l-3.6,2.2l-3.6-2.2l-3.3,2.7V52h21L153.4,93.5L153.4,93.5z
				 M135.7,89.6l3.6,2.3l3.6-2.2l3.6,2.2l3.6-2.3l2.2,1.8V53h-19v38.5L135.7,89.6z"/>
		</g>
	</g>
	<g>
		<g>
			<rect x="69.6" y="37.9" class="st9" width="23.3" height="7.1"/>
		</g>
		<g>
			<path class="st7" d="M93.4,62h-25V1h25V62z M69.4,61h23V2h-23V61z"/>
		</g>
		<g>
			<path class="st7" d="M80.1,56.5v-2.2h-2v-0.8h2v-0.9h-2v-0.8h1.6L77.5,48h1.7l1.1,2.4c0.2,0.5,0.4,0.9,0.5,1.3l0,0
				c0.2-0.4,0.3-0.8,0.5-1.3l1.1-2.3h1.7l-2.3,3.8h1.6v0.8h-2v0.8h2v0.8h-2v2.2H80.1z"/>
		</g>
		<g>
			<path class="st17" d="M76.4,41.3c-1.9,0-3.4-1.5-3.4-3.4s1.5-3.4,3.4-3.4s3.4,1.5,3.4,3.4S78.3,41.3,76.4,41.3z M76.4,35.6
				c-1.3,0-2.4,1.1-2.4,2.4s1.1,2.4,2.4,2.4s2.4-1.1,2.4-2.4S77.8,35.6,76.4,35.6z"/>
		</g>
	</g>
	<g>
		<path class="st7" d="M124.4,99h-55V70h55V99z M70.4,98h53V71h-53V98z"/>
	</g>
	<g>
		<path class="st7" d="M116.1,94.1c-0.4,0.3-1.2,0.5-2,0.5c-1.2,0-2.2-0.5-2.9-1.3c-0.4-0.5-0.7-1.1-0.8-1.9h-0.8v-0.8h0.7
			c0-0.1,0-0.1,0-0.2c0-0.2,0-0.3,0-0.5h-0.8v-0.8h0.9c0.2-0.8,0.5-1.5,1-2c0.7-0.8,1.7-1.2,2.8-1.2c0.8,0,1.4,0.2,1.9,0.4l-0.3,1.2
			c-0.3-0.2-0.9-0.4-1.5-0.4c-0.7,0-1.2,0.2-1.7,0.7c-0.3,0.3-0.5,0.7-0.6,1.2h3.4v0.8h-3.5c0,0.1,0,0.3,0,0.5c0,0.1,0,0.1,0,0.2
			h3.6v0.8h-3.4c0.1,0.6,0.3,1,0.6,1.3c0.4,0.5,1.1,0.7,1.7,0.7c0.6,0,1.2-0.2,1.5-0.4L116.1,94.1z"/>
	</g>
	<g>
		<rect x="75.9" y="75.5" class="st17" width="16" height="1"/>
	</g>
	<g>
		<rect x="110.9" y="75.5" class="st7" width="8" height="1"/>
	</g>
	<g>
		<rect x="135.9" y="4.5" class="st7" width="9" height="1"/>
	</g>
	<g>
		<rect x="146.9" y="4.5" class="st17" width="3" height="1"/>
	</g>
	<g>
		<rect x="135.9" y="8.5" class="st7" width="10" height="1"/>
	</g>
	<g>
		<rect x="147.9" y="8.5" class="st17" width="2" height="1"/>
	</g>
	<g>
		<rect x="135.9" y="12.5" class="st7" width="7" height="1"/>
	</g>
	<g>
		<rect x="144.9" y="12.5" class="st17" width="5" height="1"/>
	</g>
	<g>
		<rect x="135.9" y="16.5" class="st7" width="10" height="1"/>
	</g>
	<g>
		<rect x="147.9" y="16.5" class="st17" width="2" height="1"/>
	</g>
	<g>
		<rect x="132.9" y="21.5" class="st7" width="20" height="1"/>
	</g>
	<g>
		<path class="st7" d="M142.8,36.6v-1.3c-0.8,0-1.6-0.3-2.1-0.6l0.4-1.2c0.5,0.3,1.2,0.6,2,0.6s1.4-0.4,1.4-1s-0.5-1-1.4-1.3
			c-1.4-0.5-2.2-1.1-2.2-2.3c0-1.1,0.8-2,2.1-2.2V26h1.1v1.2c0.8,0,1.4,0.2,1.8,0.4l-0.4,1.2c-0.3-0.1-0.9-0.4-1.8-0.4
			c-0.9,0-1.2,0.5-1.2,0.9c0,0.5,0.5,0.8,1.6,1.3c1.5,0.5,2.1,1.2,2.1,2.4c0,1.1-0.8,2.1-2.2,2.3v1.3
			C144,36.6,142.8,36.6,142.8,36.6z"/>
	</g>
	<g>
		<path class="st7" d="M140.1,84.5v-0.9c0.8-0.4,1.5-1.1,1.5-2.1c0-0.2,0-0.5-0.1-0.7h-1.3v-1.1h1.1c-0.1-0.4-0.1-0.8-0.1-1.2
			c0-1.6,1.1-2.6,2.7-2.6c0.7,0,1.2,0.2,1.5,0.3l-0.3,1.2c-0.2-0.1-0.6-0.3-1.1-0.3c-1,0-1.3,0.6-1.3,1.4c0,0.4,0.1,0.8,0.1,1.2h1.8
			v1.1h-1.7c0,0.4,0,0.8-0.1,1.2c-0.1,0.4-0.4,0.8-0.8,1.1l0,0h3.7v1.3L140.1,84.5L140.1,84.5z"/>
	</g>
	<g>
		<rect x="136.9" y="58.5" class="st7" width="12" height="1"/>
	</g>
	<g>
		<rect x="136.9" y="62.5" class="st7" width="12" height="1"/>
	</g>
	<g>
		<rect x="136.9" y="66.5" class="st7" width="12" height="1"/>
	</g>
	<g>
		<g>
			<rect x="75.9" y="85.5" class="st7" width="6" height="1"/>
		</g>
		<g>
			<rect x="75.9" y="89.5" class="st7" width="6" height="1"/>
		</g>
		<g>
			<rect x="75.9" y="93.5" class="st7" width="6" height="1"/>
		</g>
		<g>
			<rect x="85.9" y="85.5" class="st7" width="16" height="1"/>
		</g>
		<g>
			<rect x="85.9" y="89.5" class="st7" width="16" height="1"/>
		</g>
		<g>
			<rect x="85.9" y="93.5" class="st7" width="11" height="1"/>
		</g>
	</g>
	<g>
		<rect x="136.9" y="71.5" class="st17" width="5" height="1"/>
	</g>
	<g>
		<rect x="72.9" y="20.5" class="st7" width="15" height="1"/>
	</g>
	<g>
		<rect x="72.9" y="24.5" class="st7" width="10" height="1"/>
	</g>
	<g>
		<rect x="72.9" y="28.5" class="st7" width="13" height="1"/>
	</g>
	<g>
		<rect x="87.9" y="6.5" class="st7" width="1" height="4"/>
	</g>
	<g>
		<rect x="84.9" y="6.5" class="st7" width="1" height="4"/>
	</g>
	<g>
		<rect x="81.9" y="6.5" class="st7" width="1" height="4"/>
	</g>
	<g>
		<rect x="78.9" y="6.5" class="st7" width="1" height="4"/>
	</g>
	<g>
		<rect x="75.9" y="6.5" class="st7" width="1" height="4"/>
	</g>
	<g>
		<rect x="72.9" y="6.5" class="st7" width="1" height="4"/>
	</g>
	<g>
		<rect x="68.9" y="14.5" class="st7" width="24" height="1"/>
	</g>
	<g>
		<path class="st7" d="M123.2,20h-21.6c-0.7,0-1.2-0.5-1.2-1.2V5.2c0-0.7,0.5-1.2,1.2-1.2h21.6c0.7,0,1.2,0.5,1.2,1.2v13.6
			C124.4,19.5,123.9,20,123.2,20z M101.6,5c-0.1,0-0.2,0.1-0.2,0.2v13.6c0,0.1,0.1,0.2,0.2,0.2h21.6c0.1,0,0.2-0.1,0.2-0.2V5.2
			c0-0.1-0.1-0.2-0.2-0.2H101.6z"/>
	</g>
	<g>
		<rect x="100.9" y="7.5" class="st7" width="23" height="2"/>
	</g>
	<g>
		<rect x="103.9" y="11.5" class="st7" width="8" height="1"/>
	</g>
	<g>
		<rect x="103.9" y="14.5" class="st7" width="6" height="1"/>
	</g>
	<g>
		<path class="st17" d="M120.9,15.5h-6v-4h6V15.5z M115.9,14.5h4v-2h-4V14.5z"/>
	</g>
</g>
</svg>
