<?xml version="1.0" encoding="utf-8"?>
<!-- Generator: Adobe Illustrator 19.2.1, SVG Export Plug-In . SVG Version: 6.00 Build 0)  -->
<svg version="1.1" id="Layer_1" xmlns="http://www.w3.org/2000/svg" xmlns:xlink="http://www.w3.org/1999/xlink" x="0px" y="0px"
	 viewBox="0 0 172.1 92.2" style="enable-background:new 0 0 172.1 92.2;" xml:space="preserve">
<style type="text/css">
	.st0{display:none;}
	.st1{display:inline;fill:#FFFFD3;}
	.st2{display:inline;}
	.st3{clip-path:url(#SVGID_2_);}
	.st4{fill:none;stroke:#E6E6E6;stroke-miterlimit:10;}
	.st5{fill:none;stroke:#666666;stroke-linejoin:bevel;stroke-miterlimit:10;}
	.st6{fill:#FFFFFF;stroke:#666666;stroke-miterlimit:10;}
	.st7{fill:none;stroke:#E6E6E6;stroke-miterlimit:10;stroke-dasharray:2,2;}
	.st8{fill:#FFFFFF;}
	.st9{fill:none;stroke:#4D9EFF;stroke-miterlimit:10;}
	.st10{fill:none;stroke:#666666;stroke-miterlimit:10;}
	.st11{fill:#FFFFFF;stroke:#666666;stroke-linejoin:bevel;stroke-miterlimit:10;}
	.st12{fill:#4D9EFF;}
	.st13{fill:#E6E6E6;}
	.st14{fill:none;stroke:#666666;stroke-miterlimit:10;stroke-dasharray:2,2;}
	.st15{clip-path:url(#SVGID_4_);}
	.st16{fill:#666666;}
	.st17{fill:#1378FB;}
</style>
<g id="Layer_3" class="st0">
	<rect x="-123.3" y="-80.9" class="st1" width="727.5" height="703.5"/>
</g>
<g id="raw" class="st0">
	<g class="st2">
		<g>
			<g>
				<defs>
					<rect id="SVGID_1_" x="17.8" y="-5.7" width="143" height="54"/>
				</defs>
				<clipPath id="SVGID_2_">
					<use xlink:href="#SVGID_1_"  style="overflow:visible;"/>
				</clipPath>
				<g class="st3">
					<g>
						<path class="st4" d="M18.2,42.6L18.2,42.6c-4.7,0-8.6-3.8-8.6-8.6v-0.6h17.1V34C26.8,38.8,22.9,42.6,18.2,42.6z"/>
						<path class="st4" d="M26.8,33.5H9.7V21.6c0-4.1,3.4-7.5,7.5-7.5h2.1c4.1,0,7.5,3.4,7.5,7.5V33.5z"/>
						<line class="st4" x1="17.1" y1="30.5" x2="20.1" y2="30.5"/>
					</g>
					<g>
						<path class="st4" d="M162.9,42.6h-2.1c-4.1,0-7.5-3.4-7.5-7.5v-1.6h17.1v1.6C170.4,39.3,167.1,42.6,162.9,42.6z"/>
						<path class="st4" d="M170.4,33.5h-17.1V21.6c0-4.1,3.4-7.5,7.5-7.5h2.1c4.1,0,7.5,3.4,7.5,7.5V33.5z"/>
						<line class="st4" x1="159.1" y1="30.5" x2="164.1" y2="30.5"/>
					</g>
					<g>
						<path class="st4" d="M115,42.6h-2.1c-4.1,0-7.5-3.4-7.5-7.5v-1.6h17.1v1.6C122.5,39.3,119.2,42.6,115,42.6z"/>
						<path class="st4" d="M122.5,33.5h-17.1V21.6c0-4.1,3.4-7.5,7.5-7.5h2.1c4.1,0,7.5,3.4,7.5,7.5V33.5z"/>
						<line class="st4" x1="112.1" y1="30.5" x2="116.1" y2="30.5"/>
					</g>
					<g>
						<path class="st4" d="M67.2,42.6h-2.1c-4.1,0-7.5-3.4-7.5-7.5v-1.6h17.1v1.6C74.7,39.3,71.3,42.6,67.2,42.6z"/>
						<path class="st4" d="M74.7,33.5H57.6V21.6c0-4.1,3.4-7.5,7.5-7.5h2.1c4.1,0,7.5,3.4,7.5,7.5V33.5z"/>
						<line class="st4" x1="64.1" y1="30.5" x2="69.1" y2="30.5"/>
					</g>
				</g>
			</g>
		</g>
		<polyline class="st5" points="108,63.2 115,50.6 115,42.5 		"/>
		<path class="st6" d="M137.3,73.4l-14.2,7.3c-0.6,0.3-1.4,0.1-1.7-0.5l-0.2-0.3c-0.3-0.6-0.1-1.4,0.5-1.7l14.2-7.3
			c0.6-0.3,1.4-0.1,1.7,0.5l0.2,0.3C138.2,72.3,137.9,73.1,137.3,73.4z"/>
		<line class="st4" x1="172.2" y1="91.7" x2="0" y2="91.7"/>
		<line class="st7" x1="160.7" y1="86.8" x2="11.5" y2="86.8"/>
		<path class="st6" d="M121.2,82.4L92.7,60.9l3.1-4.1l28.5,21.5c1,0.7,1.2,2.2,0.4,3.1l-0.4,0.5C123.6,83,122.1,83.2,121.2,82.4z"/>
		<polygon class="st6" points="76.4,72.1 58.1,67.2 49.4,35.5 48,0.5 58.2,0.5 62.2,32.8 		"/>
		<polygon class="st8" points="105.5,52.9 54.1,52.9 47.3,66.3 49.2,91.7 115,91.7 		"/>
		<polyline class="st9" points="89.7,38.1 113.7,38.1 123.7,19.5 		"/>
		<polyline class="st10" points="52.4,0.5 55.2,33.9 60.6,48.4 		"/>
		<line class="st10" x1="117.9" y1="42.5" x2="86.1" y2="42.5"/>
		<polygon class="st11" points="54.1,52.9 60.1,48.4 105.4,48.4 109.4,53.2 106.7,58 104.8,54.2 102,52.9 		"/>
		<polygon class="st12" points="101.4,91.7 49.2,91.7 48.6,83.5 		"/>
		<path class="st13" d="M107.5,59.1H49.9l4.2-6.2h46.6c2.8,0,5.2,1.9,5.9,4.6L107.5,59.1z"/>
		<polyline class="st14" points="48,71.3 86.1,71.3 107.1,91.7 		"/>
		<path class="st10" d="M101.2,52.9H54.1l-6.8,13.4l1.9,25.4h65.7L106.5,57C105.9,54.6,103.7,52.9,101.2,52.9z"/>
		<path class="st5" d="M54.1,52.9l6-4.5h45.4l3.9,4.8l-2.7,4.8l-0.1-0.6c-0.5-2.6-2.8-4.4-5.4-4.4l0,0H54.1V52.9z"/>
	</g>
</g>
<g id="outline">
	<g>
		<g>
			<g>
				<defs>
					<rect id="SVGID_3_" x="17.8" y="-5.7" width="143" height="54"/>
				</defs>
				<clipPath id="SVGID_4_">
					<use xlink:href="#SVGID_3_"  style="overflow:visible;"/>
				</clipPath>
				<g class="st15">
					<g>
						<g>
							<path class="st13" d="M18.2,43.1c-5,0-9.1-4.1-9.1-9.1v-1h18.1v1.1C27.3,39,23.2,43.1,18.2,43.1z M10.2,34L10.2,34
								c0,4.5,3.6,8.1,8.1,8.1c4.4,0,8.1-3.6,8.1-8.1l0,0H10.2z"/>
						</g>
						<g>
							<path class="st13" d="M27.3,34H9.2V21.6c0-4.4,3.6-8,8-8h2.1c4.4,0,8,3.6,8,8V34z M10.2,33h16.1V21.6c0-3.9-3.1-7-7-7h-2.1
								c-3.9,0-7,3.1-7,7V33z"/>
						</g>
						<g>
							<rect x="17.1" y="30" class="st13" width="3" height="1"/>
						</g>
					</g>
					<g>
						<g>
							<path class="st13" d="M162.9,43.1h-2.1c-4.4,0-8-3.6-8-8V33h18.1v2.1C170.9,39.5,167.4,43.1,162.9,43.1z M153.8,34v1.1
								c0,3.9,3.1,7,7,7h2.1c3.9,0,7-3.1,7-7V34H153.8z"/>
						</g>
						<g>
							<path class="st13" d="M170.9,34h-18.1V21.6c0-4.4,3.6-8,8-8h2.1c4.4,0,8,3.6,8,8V34z M153.8,33h16.1V21.6c0-3.9-3.1-7-7-7
								h-2.1c-3.9,0-7,3.1-7,7V33z"/>
						</g>
						<g>
							<rect x="159.1" y="30" class="st13" width="5" height="1"/>
						</g>
					</g>
					<g>
						<g>
							<path class="st13" d="M115,43.1h-2.1c-4.4,0-8-3.6-8-8V33H123v2.1C123,39.5,119.5,43.1,115,43.1z M105.9,34v1.1
								c0,3.9,3.1,7,7,7h2.1c3.9,0,7-3.1,7-7V34H105.9z"/>
						</g>
						<g>
							<path class="st13" d="M123,34h-18.1V21.6c0-4.4,3.6-8,8-8h2.1c4.4,0,8,3.6,8,8V34z M105.9,33H122V21.6c0-3.9-3.1-7-7-7h-2.1
								c-3.9,0-7,3.1-7,7V33z"/>
						</g>
						<g>
							<rect x="112.1" y="30" class="st13" width="4" height="1"/>
						</g>
					</g>
					<g>
						<g>
							<path class="st13" d="M67.2,43.1h-2.1c-4.4,0-8-3.6-8-8V33h18.1v2.1C75.2,39.5,71.6,43.1,67.2,43.1z M58.1,34v1.1
								c0,3.9,3.1,7,7,7h2.1c3.9,0,7-3.1,7-7V34H58.1z"/>
						</g>
						<g>
							<path class="st13" d="M75.2,34H57.1V21.6c0-4.4,3.6-8,8-8h2.1c4.4,0,8,3.6,8,8V34z M58.1,33h16.1V21.6c0-3.9-3.1-7-7-7h-2.1
								c-3.9,0-7,3.1-7,7V33z"/>
						</g>
						<g>
							<rect x="64.1" y="30" class="st13" width="5" height="1"/>
						</g>
					</g>
				</g>
			</g>
		</g>
		<g>
			<polygon class="st16" points="108.5,63.5 107.6,63 114.5,50.5 114.5,42.5 115.5,42.5 115.5,50.6 115.4,50.9 			"/>
		</g>
		<g>
			<path class="st8" d="M137.3,73.4l-14.2,7.3c-0.6,0.3-1.4,0.1-1.7-0.5l-0.2-0.3c-0.3-0.6-0.1-1.4,0.5-1.7l14.2-7.3
				c0.6-0.3,1.4-0.1,1.7,0.5l0.2,0.3C138.2,72.3,137.9,73.1,137.3,73.4z"/>
			<path class="st16" d="M122.6,81.3c-0.2,0-0.4,0-0.5-0.1c-0.4-0.1-0.8-0.4-1-0.9l-0.2-0.3c-0.2-0.4-0.3-0.9-0.1-1.3s0.4-0.8,0.9-1
				l14.2-7.3c0.4-0.2,0.9-0.3,1.3-0.1c0.4,0.1,0.8,0.4,1,0.9l0.2,0.3c0.4,0.9,0.1,1.9-0.7,2.3l-14.2,7.3
				C123.2,81.3,122.9,81.3,122.6,81.3z M136.6,71.2c-0.1,0-0.2,0-0.3,0.1l-14.2,7.3c-0.2,0.1-0.3,0.2-0.4,0.4c-0.1,0.2,0,0.4,0,0.6
				l0.2,0.3c0.1,0.2,0.2,0.3,0.4,0.4s0.4,0,0.6,0l14.2-7.3c0.4-0.2,0.5-0.6,0.3-1l-0.2-0.3C137.1,71.4,136.9,71.2,136.6,71.2z"/>
		</g>
		<g>
			<rect y="91.2" class="st13" width="172.1" height="1"/>
		</g>
		<g>
			<path class="st13" d="M160.7,87.3h-2v-1h2V87.3z M156.7,87.3h-2v-1h2V87.3z M152.7,87.3h-2v-1h2V87.3z M148.7,87.3h-2v-1h2V87.3z
				 M144.7,87.3h-2v-1h2V87.3z M140.7,87.3h-2v-1h2V87.3z M136.7,87.3h-2v-1h2V87.3z M132.7,87.3h-2v-1h2V87.3z M128.7,87.3h-2v-1h2
				V87.3z M124.7,87.3h-2v-1h2V87.3z M120.7,87.3h-2v-1h2V87.3z M116.7,87.3h-2v-1h2V87.3z M112.7,87.3h-2v-1h2V87.3z M108.7,87.3
				h-2v-1h2V87.3z M104.7,87.3h-2v-1h2V87.3z M100.7,87.3h-2v-1h2V87.3z M96.7,87.3h-2v-1h2V87.3z M92.7,87.3h-2v-1h2V87.3z
				 M88.7,87.3h-2v-1h2V87.3z M84.7,87.3h-2v-1h2V87.3z M80.7,87.3h-2v-1h2V87.3z M76.7,87.3h-2v-1h2V87.3z M72.7,87.3h-2v-1h2V87.3
				z M68.7,87.3h-2v-1h2V87.3z M64.7,87.3h-2v-1h2V87.3z M60.7,87.3h-2v-1h2V87.3z M56.7,87.3h-2v-1h2V87.3z M52.7,87.3h-2v-1h2
				V87.3z M48.7,87.3h-2v-1h2V87.3z M44.7,87.3h-2v-1h2V87.3z M40.7,87.3h-2v-1h2V87.3z M36.7,87.3h-2v-1h2V87.3z M32.7,87.3h-2v-1
				h2V87.3z M28.7,87.3h-2v-1h2V87.3z M24.7,87.3h-2v-1h2V87.3z M20.7,87.3h-2v-1h2V87.3z M16.7,87.3h-2v-1h2V87.3z M12.7,87.3h-1.3
				v-1h1.3V87.3z"/>
		</g>
		<g>
			<path class="st8" d="M121.2,82.4L92.7,60.9l3.1-4.1l28.5,21.5c1,0.7,1.2,2.2,0.4,3.1l-0.4,0.5C123.6,83,122.1,83.2,121.2,82.4z"
				/>
			<path class="st16" d="M122.5,83.4c-0.6,0-1.2-0.2-1.6-0.6L91.9,61l3.7-4.9l28.9,21.8c0.6,0.4,1,1.1,1.1,1.8
				c0.1,0.7-0.1,1.4-0.5,2l-0.4,0.5c-0.4,0.6-1.1,1-1.8,1.1C122.8,83.4,122.6,83.4,122.5,83.4z M93.3,60.8L121.4,82
				c0.4,0.3,0.8,0.4,1.3,0.3s0.9-0.3,1.1-0.7l0.4-0.5c0.3-0.4,0.4-0.8,0.3-1.3c-0.1-0.5-0.3-0.9-0.7-1.1L95.7,57.5L93.3,60.8z"/>
		</g>
		<g>
			<polygon class="st8" points="76.4,72.1 58.1,67.2 49.4,35.5 48,0.5 58.2,0.5 62.2,32.8 			"/>
			<path class="st16" d="M77.2,72.8l-19.4-5.2L49,35.5L47.5,0h11.2l4,32.6L77.2,72.8z M58.5,66.8l17,4.6L61.6,32.9L57.8,1h-9.2
				L50,35.4L58.5,66.8z"/>
		</g>
		<g>
			<polygon class="st8" points="105.5,52.9 54.1,52.9 47.3,66.3 49.2,91.7 115,91.7 			"/>
		</g>
		<g>
			<polygon class="st17" points="114,38.6 89.7,38.6 89.7,37.6 113.4,37.6 123.3,19.3 124.2,19.8 			"/>
		</g>
		<g>
			<polygon class="st16" points="60.2,48.5 54.7,33.9 51.9,0.6 52.9,0.5 55.7,33.8 61.1,48.2 			"/>
		</g>
		<g>
			<rect x="86.1" y="42" class="st16" width="31.8" height="1"/>
		</g>
		<g>
			<polygon class="st8" points="54.1,52.9 60.1,48.4 105.4,48.4 109.4,53.2 106.7,58 104.8,54.2 102,52.9 			"/>
			<path class="st16" d="M107.2,58.2h-0.9l-1.8-3.6l-2.6-1.2H54.1l-0.3-0.9l6-4.5l0.3-0.1h45.4l0.4,0.2l3.9,4.8l0.1,0.6L107.2,58.2z
				 M55.6,52.4H102h0.2l2.8,1.4l0.2,0.2l1.5,2.9l2-3.7l-3.6-4.4h-45L55.6,52.4z"/>
		</g>
		<g>
			<polygon class="st17" points="101.4,91.7 49.2,91.7 48.6,83.5 			"/>
		</g>
		<g>
			<path class="st13" d="M107.5,59.1H49.9l4.2-6.2h46.6c2.8,0,5.2,1.9,5.9,4.6L107.5,59.1z"/>
		</g>
		<g>
			<path class="st16" d="M105.8,91.1l-1.4-1.4l0.7-0.7l1.4,1.4L105.8,91.1z M102.9,88.3l-1.4-1.4l0.7-0.7l1.4,1.4L102.9,88.3z
				 M100,85.5l-1.4-1.4l0.7-0.7l1.4,1.4L100,85.5z M97.2,82.7l-1.4-1.4l0.7-0.7l1.4,1.4L97.2,82.7z M94.3,79.9l-1.4-1.4l0.7-0.7
				l1.4,1.4L94.3,79.9z M91.4,77.1L90,75.7l0.7-0.7l1.4,1.4L91.4,77.1z M88.5,74.4L87.1,73l0.7-0.7l1.4,1.4L88.5,74.4z M86,71.8h-2
				v-1h2V71.8z M82,71.8h-2v-1h2V71.8z M78,71.8h-2v-1h2V71.8z M74,71.8h-2v-1h2V71.8z M70,71.8h-2v-1h2V71.8z M66,71.8h-2v-1h2
				V71.8z M62,71.8h-2v-1h2V71.8z M58,71.8h-2v-1h2V71.8z M54,71.8h-2v-1h2V71.8z M50,71.8h-2v-1h2V71.8z"/>
		</g>
		<g>
			<path class="st16" d="M115.6,92.2H48.8l-2-26l7-13.8h47.5c2.7,0,5.1,1.9,5.8,4.5L115.6,92.2z M49.7,91.2h64.6l-8.3-34
				c-0.5-2.2-2.5-3.8-4.8-3.8H54.4l-6.6,13L49.7,91.2z"/>
		</g>
		<g>
			<path class="st16" d="M107.2,58.2l-0.9-0.1l-0.1-0.6c-0.4-2.3-2.5-4-4.9-4l0,0H54.1l-0.3-0.9l6-4.5l0.3-0.1h45.4l0.4,0.2l3.9,4.8
				l0.1,0.6L107.2,58.2z M101.2,52.4c2.6,0,4.9,1.7,5.7,4.2l1.9-3.3l-3.6-4.4h-45l-4.7,3.5L101.2,52.4
				C101.2,52.4,101.2,52.4,101.2,52.4z"/>
		</g>
	</g>
</g>
</svg>
