<?xml version="1.0" encoding="utf-8"?>
<!-- Generator: Adobe Illustrator 19.2.1, SVG Export Plug-In . SVG Version: 6.00 Build 0)  -->
<svg version="1.1" id="Layer_1" xmlns="http://www.w3.org/2000/svg" xmlns:xlink="http://www.w3.org/1999/xlink" x="0px" y="0px"
	 viewBox="0 0 24 24" style="enable-background:new 0 0 24 24;" xml:space="preserve">
<style type="text/css">
	.st0{fill:none;stroke:#5A6677;stroke-width:0.75;stroke-linejoin:round;stroke-miterlimit:10;}
</style>
<g>
	<path class="st0" d="M12,1l1,2.5h2.5l-2,1.7l0.8,2.7L12,6.1L9.8,7.9l0.8-2.7l-2-1.7H11L12,1z M4,7l1,2.5h2.5l-2,1.7l0.8,2.7L4,12.1
		l-2.2,1.7l0.8-2.7l-2-1.7H3L4,7z M20,7l1,2.5h2.5l-2,1.7l0.8,2.7L20,12.1l-2.2,1.7l0.8-2.7l-2-1.7H19L20,7z M17,16l1,2.5h2.5
		l-2,1.7l0.8,2.7L17,21.1l-2.2,1.7l0.8-2.7l-2-1.7H16L17,16z M7,16l1,2.5h2.5l-2,1.7l0.8,2.7L7,21.1l-2.2,1.7l0.8-2.7l-2-1.7H6L7,16
		z"/>
</g>
</svg>
