<?xml version="1.0" encoding="utf-8"?>
<!-- Generator: Adobe Illustrator 19.2.1, SVG Export Plug-In . SVG Version: 6.00 Build 0)  -->
<svg version="1.1" id="Layer_1" xmlns="http://www.w3.org/2000/svg" xmlns:xlink="http://www.w3.org/1999/xlink" x="0px" y="0px"
	 viewBox="0 0 24 24" style="enable-background:new 0 0 24 24;" xml:space="preserve">
<style type="text/css">
	.st0{fill:none;stroke:#5B6778;stroke-width:0.75;stroke-miterlimit:10;}
	.st1{fill:#8F9BAA;}
</style>
<g>
	<path class="st0" d="M23.5,18.5c0,1.1-0.9,2-2,2h-19c-1.1,0-2-0.9-2-2v-13c0-1.1,0.9-2,2-2h19c1.1,0,2,0.9,2,2V18.5z"/>
	<path class="st1" d="M5.6,10H4.3l-1.7,4h1.2l0.3-1h1.7l0.3,1h1.2L5.6,10z M4.3,12.5l0.6-1.4l0.6,1.4C5.5,12.5,4.3,12.5,4.3,12.5z
		 M12.5,10h-1.2l-1.2,1.5L8.9,10H8v4h1v-2.3l1,1.3h0.1l0.9-1.3V14h1.5C12.5,14,12.5,10,12.5,10z M16,10h-2.5v4h3v-1h-2v-0.5H16v-1
		h-1.5V11H16V10z M21.3,10h-1.5l-0.3,0.4c-0.1,0.1-0.3,0.4-0.5,0.7l-0.6-0.7L18.2,10h-1.5l1.6,1.9L16.6,14h1.5l0.4-0.4
		c0.1-0.2,0.3-0.4,0.6-0.7l0.3,0.4l0.2,0.3l0.4,0.5h1.5l-1.7-2.1C19.7,11.9,21.3,10,21.3,10z"/>
</g>
</svg>
