<svg id="Layer_1" data-name="Layer 1" xmlns="http://www.w3.org/2000/svg" viewBox="0 0 283.48 75.91"><defs><style>.cls-1{fill:#f0512f;}</style></defs><title>payfirma-logo</title><path class="cls-1" d="M65.65,65.76c0-2.33.32-5.47,0.64-8.76H66.13c-3.86,7.16-9.08,9.65-14.07,9.65-7,0-11.58-5.47-11.58-13.35,0-13.35,9.33-27.58,27.58-27.58A42.68,42.68,0,0,1,80,27.48L75.86,47.9a90.85,90.85,0,0,0-1.61,17.85h-8.6Zm3.78-32.41a16,16,0,0,0-3.86-.4c-8.6,0-15.35,9.73-15.35,18.66,0,4.1,1.52,7.48,5.63,7.48,4.42,0,9.73-5.46,11.58-15.44Z" transform="translate(-2.14 -7.86)"/><path class="cls-1" d="M93.06,26.6l3.06,18.82c0.72,4.26,1.21,7.16,1.53,9.81h0.16c1-2.41,1.93-5.07,3.78-9.33L110,26.6h10L105.61,55.46C100.87,65,96.52,72,91.3,77a26.54,26.54,0,0,1-12.06,6.75l-2.17-8A25.3,25.3,0,0,0,84,72.27a23.5,23.5,0,0,0,6.91-7.8,2.19,2.19,0,0,0,.16-1.77l-7.8-36.1h9.81Z" transform="translate(-2.14 -7.86)"/><path class="cls-1" d="M156.93,65.76l4.58-24.12c1-5.55,1.61-11.58,2-15h8.12c-0.24,2.66-.48,5.39-0.88,8.2H171c2.65-5.23,6.92-9.08,12.22-9.08,0.73,0,1.45.08,2.09,0.08L183.46,35a11.9,11.9,0,0,0-1.77-.08c-6.68,0-10.94,6.75-12.46,15.12l-3,15.76h-9.33Z" transform="translate(-2.14 -7.86)"/><path class="cls-1" d="M182.82,65.76l5-27c0.88-4.67,1.45-8.77,1.93-12.14h8.12L197,33.43h0.16c3.62-5.23,8.52-7.72,13.67-7.72,6.11,0,8.84,3.94,9.17,8,3.54-5.31,8.44-8,13.91-8,5.31,0,9.49,3.46,9.49,10.45a52.75,52.75,0,0,1-.64,6.67l-4.26,22.92h-9.08l4-21.87A25.6,25.6,0,0,0,234,39c0-3.38-1.37-5.63-4.75-5.63-4.34,0-9.08,5.39-10.61,13.67l-3.46,18.74h-9.09l4.26-22.19A31.63,31.63,0,0,0,210.8,39c0-2.9-.88-5.63-4.74-5.63-4.34,0-9.33,6-10.77,13.91l-3.38,18.5h-9.08Z" transform="translate(-2.14 -7.86)"/><path class="cls-1" d="M271.31,65.76c0-2.33.32-5.47,0.64-8.76h-0.16c-3.86,7.16-9.08,9.65-14.07,9.65-7,0-11.58-5.47-11.58-13.35,0-13.35,9.33-27.58,27.58-27.58a42.66,42.66,0,0,1,11.9,1.77l-4.1,20.42a90.94,90.94,0,0,0-1.61,17.85h-8.6Zm3.78-32.41a16,16,0,0,0-3.86-.4c-8.6,0-15.36,9.73-15.36,18.66,0,4.1,1.53,7.48,5.63,7.48,4.42,0,9.73-5.46,11.58-15.44Z" transform="translate(-2.14 -7.86)"/><path class="cls-1" d="M39.21,15c-3.54-2.81-8.84-3.86-13.91-3.86a59.87,59.87,0,0,0-13,1.28L2.14,65.76H11.3l3.94-20.5a43.54,43.54,0,0,0,5.07.4c6.43,0,12.62-1.69,17-5.15a18.73,18.73,0,0,0,6.91-14.71,12.87,12.87,0,0,0-5-10.78M21.6,38a21.76,21.76,0,0,1-4.67-.44h0l-0.23,0v0a7.1,7.1,0,0,1-1.08-.33A8.14,8.14,0,0,1,13.3,35.8a14.34,14.34,0,0,0,3.78-.33l3.07-16.36a20.9,20.9,0,0,1,5.23-.48c5.3,0,9.41,2.09,9.41,7.88,0,6.43-5.31,11.5-13.19,11.5" transform="translate(-2.14 -7.86)"/><polygon class="cls-1" points="137.06 57.9 144.53 18.74 153.86 18.74 146.38 57.9 137.06 57.9"/><path class="cls-1" d="M142.06,26.6h-9.52l0.24-1.69c0.89-5,3.54-9.41,10.37-9.41a20.42,20.42,0,0,1,8.2,1.77L154,10c-1.69-1-5.79-2.17-10-2.17-10.94,0-18.41,6.19-20.42,17.05l-0.32,1.69-1.37,7.24-6,31.92h9.25l4.23-22.38,1.8-9.54h9.52Z" transform="translate(-2.14 -7.86)"/></svg>