<?xml version="1.0" encoding="utf-8"?>
<!-- Generator: Adobe Illustrator 19.2.1, SVG Export Plug-In . SVG Version: 6.00 Build 0)  -->
<svg version="1.1" id="Layer_1" xmlns="http://www.w3.org/2000/svg" xmlns:xlink="http://www.w3.org/1999/xlink" x="0px" y="0px"
	 viewBox="0 0 477.7 91.3" style="enable-background:new 0 0 477.7 91.3;" xml:space="preserve">
<style type="text/css">
	.st0{fill:#1378FB;}
	.st1{fill:#1378FB;stroke:#1378FB;stroke-width:2.5;stroke-miterlimit:10;}
	.st2{fill:#1378FB;stroke:#1378FB;stroke-width:1.3;stroke-miterlimit:10;}
</style>
<title>trippeo-full</title>
<path class="st0" d="M143.9,68.5V27.1h-16.6v-3.5h36.8v3.5h-16.7v41.4L143.9,68.5L143.9,68.5z"/>
<path class="st0" d="M216.6,68.5l-7.8-10.1c-1.2,0.5-2.4,0.8-3.7,1c-0.4,0-0.8,0.1-1.2,0.1c-0.4,0-0.9,0-1.3,0h-17.3v9.1h-3.5v-45
	h20.9c2.4,0,4.8,0.5,7,1.4c2.1,0.9,4.1,2.2,5.7,3.8c1.6,1.6,3,3.6,3.9,5.7c2.2,5.2,1.8,11-0.9,15.9c-1.5,2.6-3.7,4.9-6.2,6.4
	l9.1,11.7L216.6,68.5L216.6,68.5z M185.2,27v28.8h18c0.5,0,1-0.1,1.4-0.2c1.7-0.2,3.4-0.8,4.9-1.6c1.5-0.8,2.9-1.9,4-3.1
	c1.1-1.3,2-2.7,2.6-4.3c1.3-3.5,1.2-7.3-0.2-10.7c-0.7-1.7-1.8-3.3-3.1-4.6c-1.3-1.3-2.9-2.4-4.6-3.1c-1.8-0.8-3.7-1.2-5.6-1.1
	L185.2,27L185.2,27z"/>
<path class="st0" d="M238.4,68.5V23.5h3.5v44.9H238.4z"/>
<path class="st0" d="M264,68.5h-3.5V23.4h21c2.4,0,4.8,0.5,7,1.4c4.3,1.8,7.7,5.2,9.5,9.5c1.9,4.4,1.9,9.5,0,13.9
	c-1.8,4.3-5.2,7.7-9.5,9.5c-2.2,0.9-4.6,1.4-7,1.4H264L264,68.5L264,68.5z M264,26.9v28.7h17.4c1.9,0,3.8-0.4,5.6-1.1
	c3.4-1.4,6.2-4.2,7.6-7.6c1.5-3.6,1.5-7.6,0-11.2c-0.7-1.7-1.8-3.3-3.1-4.6c-1.3-1.3-2.9-2.4-4.6-3.1c-1.8-0.8-3.7-1.1-5.6-1.1
	L264,26.9L264,26.9z"/>
<path class="st0" d="M320.5,68.5h-3.5V23.4h21c2.4,0,4.8,0.5,7,1.4c4.3,1.8,7.7,5.2,9.5,9.5c1.9,4.4,1.9,9.5,0,13.9
	c-1.8,4.3-5.3,7.7-9.6,9.6c-2.2,0.9-4.6,1.4-7,1.4h-17.4L320.5,68.5L320.5,68.5z M320.5,26.9v28.7h17.4c1.9,0,3.8-0.4,5.6-1.1
	c3.4-1.4,6.2-4.2,7.6-7.6c1.5-3.6,1.5-7.6,0-11.2c-0.7-1.7-1.8-3.3-3.1-4.6c-1.3-1.3-2.9-2.4-4.6-3.1c-1.8-0.8-3.7-1.1-5.6-1.1
	L320.5,26.9L320.5,26.9z"/>
<path class="st0" d="M377.2,59.2v5.7h28.3v3.5h-31.9v-45h31.9V27h-28.3v19.4h28.3v3.5h-28.3v5.8"/>
<path class="st0" d="M445.6,68.9c-3.1,0-6.2-0.6-9-1.8c-2.7-1.2-5.2-2.9-7.3-5c-2.1-2.1-3.8-4.6-5-7.3c-2.4-5.7-2.4-12.2,0-17.9
	c1.2-2.8,2.9-5.3,5-7.4c2.1-2.1,4.6-3.8,7.3-5c5.7-2.4,12.2-2.4,17.9,0c2.7,1.2,5.2,2.9,7.4,5c4.3,4.3,6.8,10.2,6.8,16.3
	c0,3.1-0.6,6.1-1.8,9c-1.2,2.7-2.9,5.2-5,7.3c-2.1,2.1-4.6,3.8-7.4,5C451.7,68.3,448.6,68.9,445.6,68.9z M445.6,26.3
	c-2.6,0-5.2,0.5-7.6,1.5c-4.7,2-8.4,5.7-10.4,10.4c-1,2.4-1.5,5-1.5,7.6c0,2.6,0.5,5.2,1.5,7.6c2,4.7,5.7,8.4,10.4,10.4
	c2.4,1,5,1.5,7.6,1.5c2.6,0,5.2-0.5,7.6-1.5c4.7-2,8.4-5.7,10.4-10.4c1-2.4,1.5-5,1.5-7.6c0-2.6-0.5-5.2-1.5-7.6
	c-2-4.7-5.7-8.5-10.4-10.4C450.8,26.8,448.2,26.3,445.6,26.3L445.6,26.3z"/>
<path class="st1" d="M85.3,22.2c5.2,6.8,7.9,15.1,7.9,23.7c0,21.7-17.7,39.2-39.4,39.2c-8.5,0-16.7-2.8-23.5-7.9l-0.9,1.2
	c7.1,5.4,15.7,8.3,24.6,8.2c22.6-0.1,40.8-18.4,40.7-41c0-8.8-2.9-17.4-8.2-24.4L85.3,22.2z"/>
<path class="st1" d="M14.7,45.8C14.7,24.1,32.3,6.5,54,6.6c8.5,0,16.7,2.8,23.5,7.9l0.9-1.2c-18-13.5-43.6-9.9-57.1,8.1
	c-10.9,14.5-10.9,34.5,0,49l1.2-0.9C17.4,62.6,14.7,54.3,14.7,45.8z"/>
<path class="st2" d="M52.7,62.8V35.2H41.6v-2.4h24.6v2.4H55.1v27.6H52.7z"/>
</svg>
